<svg width="110" height="110" viewBox="0 0 110 110" fill="none" xmlns="http://www.w3.org/2000/svg">
<g opacity="0.7">
<mask id="path-1-inside-1_7465_155040" fill="white">
<path d="M61.5195 23C62.6241 23 63.5195 23.8954 63.5195 25V30.0391C66.9884 31.186 70.1366 33.0359 72.7969 35.4199L77.249 32.8672C78.2037 32.3196 79.4212 32.6467 79.9736 33.5986L86.2344 44.3857C86.7902 45.3439 86.4614 46.5711 85.501 47.123L81.0127 49.7012C81.363 51.4128 81.5479 53.1848 81.5479 55C81.5479 56.8114 81.3636 58.5798 81.0147 60.2881L85.5205 62.877C86.4807 63.429 86.8096 64.6562 86.2539 65.6143L79.9932 76.4014C79.4408 77.3532 78.2233 77.6803 77.2686 77.1328L72.8047 74.5723C70.1478 76.9553 67.0037 78.8045 63.5391 79.9531V85C63.5391 86.1045 62.6436 86.9999 61.5391 87H49.0039C47.8994 86.9999 47.0039 86.1045 47.0039 85V79.96C43.5347 78.8128 40.386 76.9635 37.7256 74.5791L33.2744 77.1328C32.3197 77.6803 31.1022 77.3532 30.5498 76.4014L24.2891 65.6143C23.7332 64.656 24.0628 63.4288 25.0234 62.877L29.5098 60.2979C29.1596 58.5866 28.9766 56.8147 28.9766 55C28.9766 53.1884 29.1588 51.4194 29.5078 49.7109L25.0039 47.123C24.0432 46.5711 23.7145 45.344 24.2705 44.3857L30.5303 33.5986C31.0826 32.6468 32.3002 32.3199 33.2549 32.8672L37.7178 35.4268C40.3748 33.0436 43.5197 31.1946 46.9844 30.0459V25C46.9844 23.8956 47.88 23.0003 48.9844 23H61.5195Z"/>
</mask>
<path d="M63.5195 30.0391H61.5195V31.4843L62.8917 31.938L63.5195 30.0391ZM72.7969 35.4199L71.4621 36.9094L72.5382 37.8737L73.7917 37.155L72.7969 35.4199ZM77.249 32.8672L78.2439 34.6022L78.2441 34.6021L77.249 32.8672ZM79.9736 33.5986L78.2438 34.6025L78.2439 34.6026L79.9736 33.5986ZM86.2344 44.3857L87.9643 43.3821L87.9642 43.3818L86.2344 44.3857ZM85.501 47.123L86.4972 48.8573L86.4976 48.857L85.501 47.123ZM81.0127 49.7012L80.0165 47.9669L78.7636 48.6866L79.0533 50.1022L81.0127 49.7012ZM81.5479 55H83.5479V55H81.5479ZM81.0147 60.2881L79.0551 59.8878L78.7661 61.3028L80.0183 62.0222L81.0147 60.2881ZM85.5205 62.877L86.5173 61.1431L86.5169 61.1428L85.5205 62.877ZM86.2539 65.6143L87.9837 66.6182L87.9839 66.6178L86.2539 65.6143ZM79.9932 76.4014L78.2634 75.3974L78.2634 75.3975L79.9932 76.4014ZM77.2686 77.1328L76.2734 78.8677L76.2736 78.8678L77.2686 77.1328ZM72.8047 74.5723L73.7998 72.8374L72.5457 72.118L71.4693 73.0834L72.8047 74.5723ZM63.5391 79.9531L62.9097 78.0547L61.5391 78.5092V79.9531H63.5391ZM61.5391 87V89H61.5392L61.5391 87ZM49.0039 87L49.0037 89H49.0039V87ZM47.0039 79.96H49.0039V78.5148L47.6318 78.0611L47.0039 79.96ZM37.7256 74.5791L39.0605 73.0898L37.9841 72.125L36.7303 72.8443L37.7256 74.5791ZM33.2744 77.1328L34.2693 78.8678L34.2697 78.8676L33.2744 77.1328ZM30.5498 76.4014L32.2796 75.3975L32.2796 75.3974L30.5498 76.4014ZM24.2891 65.6143L22.559 66.6177L22.5593 66.6182L24.2891 65.6143ZM25.0234 62.877L26.0197 64.6111L26.0202 64.6109L25.0234 62.877ZM29.5098 60.2979L30.5066 62.0318L31.7587 61.3119L31.4692 59.8969L29.5098 60.2979ZM28.9766 55H26.9766V55H28.9766ZM29.5078 49.7109L31.4674 50.1112L31.7564 48.6963L30.5042 47.9768L29.5078 49.7109ZM25.0039 47.123L26.0003 45.3889L26.0002 45.3889L25.0039 47.123ZM24.2705 44.3857L22.5407 43.3819L22.5407 43.382L24.2705 44.3857ZM30.5303 33.5986L28.8005 32.5948L28.8004 32.5948L30.5303 33.5986ZM33.2549 32.8672L34.2499 31.1323L34.2496 31.1321L33.2549 32.8672ZM37.7178 35.4268L36.7228 37.1617L37.9769 37.881L39.0532 36.9156L37.7178 35.4268ZM46.9844 30.0459L47.6138 31.9443L48.9844 31.4899V30.0459H46.9844ZM48.9844 23V21H48.9839L48.9844 23ZM61.5195 23V25H63.5195H65.5195C65.5195 22.7909 63.7287 21 61.5195 21V23ZM63.5195 25H61.5195V30.0391H63.5195H65.5195V25H63.5195ZM63.5195 30.0391L62.8917 31.938C66.0941 32.9968 69.0027 34.7053 71.4621 36.9094L72.7969 35.4199L74.1316 33.9305C71.2705 31.3664 67.8828 29.3752 64.1474 28.1402L63.5195 30.0391ZM72.7969 35.4199L73.7917 37.155L78.2439 34.6022L77.249 32.8672L76.2542 31.1322L71.8021 33.6849L72.7969 35.4199ZM77.249 32.8672L78.2441 34.6021L78.2438 34.6025L79.9736 33.5986L81.7034 32.5948C80.599 30.6917 78.1642 30.0367 76.254 31.1323L77.249 32.8672ZM79.9736 33.5986L78.2439 34.6026L84.5046 45.3897L86.2344 44.3857L87.9642 43.3818L81.7034 32.5947L79.9736 33.5986ZM86.2344 44.3857L84.5044 45.3894L84.5044 45.389L85.501 47.123L86.4976 48.857C88.4182 47.7532 89.0762 45.2987 87.9643 43.3821L86.2344 44.3857ZM85.501 47.123L84.5048 45.3888L80.0165 47.9669L81.0127 49.7012L82.0089 51.4354L86.4972 48.8573L85.501 47.123ZM81.0127 49.7012L79.0533 50.1022C79.3769 51.6832 79.5479 53.3209 79.5479 55H81.5479H83.5479C83.5479 53.0487 83.3492 51.1423 82.9721 49.3001L81.0127 49.7012ZM81.5479 55H79.5479C79.5479 56.6754 79.3774 58.3097 79.0551 59.8878L81.0147 60.2881L82.9742 60.6883C83.3497 58.8499 83.5479 56.9474 83.5479 55H81.5479ZM81.0147 60.2881L80.0183 62.0222L84.5242 64.6111L85.5205 62.877L86.5169 61.1428L82.011 58.5539L81.0147 60.2881ZM85.5205 62.877L84.5237 64.6108L84.5239 64.6108L86.2539 65.6143L87.9839 66.6178C89.0956 64.7013 88.4374 62.2469 86.5173 61.1431L85.5205 62.877ZM86.2539 65.6143L84.5241 64.6103L78.2634 75.3974L79.9932 76.4014L81.7229 77.4053L87.9837 66.6182L86.2539 65.6143ZM79.9932 76.4014L78.2634 75.3975L78.2635 75.3979L77.2686 77.1328L76.2736 78.8678C78.1836 79.9631 80.6185 79.3084 81.723 77.4053L79.9932 76.4014ZM77.2686 77.1328L78.2637 75.398L73.7998 72.8374L72.8047 74.5723L71.8096 76.3071L76.2734 78.8677L77.2686 77.1328ZM72.8047 74.5723L71.4693 73.0834C69.0132 75.2863 66.1084 76.9943 62.9097 78.0547L63.5391 79.9531L64.1685 81.8515C67.8989 80.6147 71.2824 78.6243 74.1401 76.0611L72.8047 74.5723ZM63.5391 79.9531H61.5391V85H63.5391H65.5391V79.9531H63.5391ZM63.5391 85H61.5391H61.5389L61.5391 87L61.5392 89C63.748 88.9998 65.5391 87.2092 65.5391 85H63.5391ZM61.5391 87V85H49.0039V87V89H61.5391V87ZM49.0039 87L49.0041 85H49.0039H47.0039H45.0039C45.0039 87.2093 46.795 88.9998 49.0037 89L49.0039 87ZM47.0039 85H49.0039V79.96H47.0039H45.0039V85H47.0039ZM47.0039 79.96L47.6318 78.0611C44.4288 77.0019 41.5197 75.2939 39.0605 73.0898L37.7256 74.5791L36.3907 76.0685C39.2523 78.6331 42.6407 80.6237 46.376 81.8588L47.0039 79.96ZM37.7256 74.5791L36.7303 72.8443L32.2792 75.398L33.2744 77.1328L34.2697 78.8676L38.7209 76.3139L37.7256 74.5791ZM33.2744 77.1328L32.2795 75.3978L32.2796 75.3975L30.5498 76.4014L28.82 77.4053C29.9245 79.3084 32.3594 79.963 34.2693 78.8678L33.2744 77.1328ZM30.5498 76.4014L32.2796 75.3974L26.0188 64.6103L24.2891 65.6143L22.5593 66.6182L28.82 77.4053L30.5498 76.4014ZM24.2891 65.6143L26.0191 64.6108L26.0197 64.6111L25.0234 62.877L24.0272 61.1428C22.1071 62.2458 21.4468 64.7001 22.559 66.6177L24.2891 65.6143ZM25.0234 62.877L26.0202 64.6109L30.5066 62.0318L29.5098 60.2979L28.513 58.5639L24.0267 61.1431L25.0234 62.877ZM29.5098 60.2979L31.4692 59.8969C31.146 58.3175 30.9766 56.68 30.9766 55H28.9766H26.9766C26.9766 56.9495 27.1732 58.8558 27.5504 60.6988L29.5098 60.2979ZM28.9766 55H30.9766C30.9766 53.3228 31.1453 51.688 31.4674 50.1112L29.5078 49.7109L27.5483 49.3106C27.1724 51.1509 26.9766 53.0539 26.9766 55H28.9766ZM29.5078 49.7109L30.5042 47.9768L26.0003 45.3889L25.0039 47.123L24.0075 48.8572L28.5114 51.4451L29.5078 49.7109ZM25.0039 47.123L26.0002 45.3889L26.0004 45.3895L24.2705 44.3857L22.5407 43.382C21.4285 45.2986 22.0863 47.7534 24.0076 48.8572L25.0039 47.123ZM24.2705 44.3857L26.0004 45.3896L32.2601 34.6025L30.5303 33.5986L28.8004 32.5948L22.5407 43.3819L24.2705 44.3857ZM30.5303 33.5986L32.2601 34.6025L32.2602 34.6023L33.2549 32.8672L34.2496 31.1321C32.34 30.0373 29.905 30.6915 28.8005 32.5948L30.5303 33.5986ZM33.2549 32.8672L32.2599 34.6021L36.7228 37.1617L37.7178 35.4268L38.7128 33.6918L34.2499 31.1323L33.2549 32.8672ZM37.7178 35.4268L39.0532 36.9156C41.5092 34.7127 44.4148 33.0049 47.6138 31.9443L46.9844 30.0459L46.355 28.1475C42.6246 29.3843 39.2403 31.3745 36.3824 33.9379L37.7178 35.4268ZM46.9844 30.0459H48.9844V25H46.9844H44.9844V30.0459H46.9844ZM46.9844 25H48.9844H48.9848L48.9844 23L48.9839 21C46.7758 21.0005 44.9844 22.7906 44.9844 25H46.9844ZM48.9844 23V25H61.5195V23V21H48.9844V23Z" fill="white" mask="url(#path-1-inside-1_7465_155040)"/>
<path d="M11.0723 29.4218C10.92 28.8909 10.3662 28.584 9.83534 28.7363L1.18424 31.2179C0.653362 31.3702 0.346453 31.924 0.498737 32.4549C0.651021 32.9857 1.20483 33.2926 1.73571 33.1404L9.42558 30.9345L11.6315 38.6244C11.7837 39.1552 12.3375 39.4621 12.8684 39.3099C13.3993 39.1576 13.7062 38.6038 13.5539 38.0729L11.0723 29.4218ZM81.3246 101.251C81.8075 100.983 81.9816 100.374 81.7136 99.8913C81.4455 99.4084 80.8368 99.2343 80.3539 99.5023L80.8392 100.377L81.3246 101.251ZM18.8483 91.6569L19.5554 90.9498C3.09586 74.4902 0.237674 49.5769 10.9857 30.1822L10.1111 29.6975L9.23641 29.2128C-1.93256 49.367 1.03408 75.2569 18.1412 92.364L18.8483 91.6569ZM80.8392 100.377L80.3539 99.5023C60.9548 110.271 36.0237 107.418 19.5554 90.9498L18.8483 91.6569L18.1412 92.364C35.2574 109.48 61.1658 112.441 81.3246 101.251L80.8392 100.377Z" fill="white"/>
<path d="M30.0084 10.4896C29.5253 10.7574 28.9167 10.5828 28.649 10.0997C28.3813 9.61663 28.5559 9.00801 29.039 8.74031L29.5237 9.61498L30.0084 10.4896ZM100.478 81.3046C99.9469 81.4565 99.3933 81.1492 99.2414 80.6182L96.7658 71.9654C96.6139 71.4344 96.9212 70.8808 97.4522 70.7289C97.9832 70.577 98.5368 70.8843 98.6887 71.4153L100.889 79.1067L108.581 76.9062C109.112 76.7543 109.665 77.0615 109.817 77.5925C109.969 78.1235 109.662 78.6771 109.131 78.829L100.478 81.3046ZM91.4831 18.3522L90.776 19.0593C74.3164 2.59977 49.4031 -0.258419 30.0084 10.4896L29.5237 9.61498L29.039 8.74031C49.1931 -2.42866 75.0831 0.537985 92.1902 17.6451L91.4831 18.3522ZM100.203 80.3432L99.3285 79.8578C110.097 60.4587 107.244 35.5276 90.776 19.0593L91.4831 18.3522L92.1902 17.6451C109.306 34.7613 112.267 60.6697 101.077 80.8285L100.203 80.3432Z" fill="white"/>
<circle cx="55" cy="55" r="13" stroke="white" stroke-width="2"/>
</g>
<path d="M0 81.1349V66.1387C0 65.5135 0.478262 64.9923 1.10112 64.9386L3.37791 64.7423C9.96919 64.174 16.0559 60.9817 20.2707 55.8824C20.6548 55.4177 21.3695 55.4112 21.7724 55.8597C26.345 60.9493 32.7419 64.1964 39.5561 64.8125L40.8897 64.9331C41.5185 64.99 42 65.517 42 66.1483V81.1349V89.2926C42 94.6747 39.1165 99.6443 34.4439 102.315L21.9925 109.433C21.3775 109.784 20.6225 109.784 20.0075 109.433L7.55606 102.315C2.88348 99.6443 0 94.6747 0 89.2926V81.1349Z" fill="#E60040"/>
<path opacity="0.2" d="M0 78.6211C4.42258 91.5168 14.5382 101.766 27.3477 106.372L21.9922 109.434C21.3773 109.785 20.6227 109.785 20.0078 109.434L7.55566 102.316C2.8833 99.6455 0.000123982 94.6758 0 89.2939V78.6211Z" fill="black"/>
<path d="M11 82.5L17.4286 90L31 75" stroke="white" stroke-width="2" stroke-linecap="round"/>
</svg>
