<svg width="110" height="110" viewBox="0 0 110 110" fill="none" xmlns="http://www.w3.org/2000/svg">
<g opacity="0.7">
<path d="M44 90L38 109" stroke="white" stroke-width="2" stroke-linecap="round"/>
<path d="M58 90L64 109" stroke="white" stroke-width="2" stroke-linecap="round"/>
<path d="M28 109H74" stroke="white" stroke-width="2" stroke-linecap="round"/>
<path d="M2 74C43.9948 74 58.0052 74 100 74" stroke="white" stroke-width="2" stroke-linecap="round"/>
<path d="M100 58.5643V90H2V16H46.4126" stroke="white" stroke-width="2" stroke-linecap="round"/>
</g>
<path d="M86.2259 2C87.3303 2.00019 88.2259 2.89555 88.2259 4V8.15723C91.2618 9.16104 94.017 10.7805 96.3451 12.8672L100.023 10.7578C100.978 10.2102 102.196 10.5364 102.748 11.4883L107.975 20.4951C108.531 21.4534 108.202 22.6815 107.242 23.2334L103.533 25.3633C103.839 26.8606 104 28.4111 104 29.999C104 31.5843 103.839 33.132 103.534 34.627L107.258 36.7666C108.219 37.3185 108.548 38.5466 107.992 39.5049L102.765 48.5117C102.213 49.4635 100.995 49.7896 100.04 49.2422L96.35 47.125C94.0252 49.2101 91.274 50.828 88.2425 51.833V56C88.2425 57.1045 87.3471 58 86.2425 58H75.7748C74.6702 58 73.7748 57.1046 73.7748 56V51.8389C70.7393 50.8352 67.9844 49.2171 65.6566 47.1309L61.9769 49.2422C61.0223 49.7897 59.8048 49.4634 59.2523 48.5117L54.0248 39.5049C53.4688 38.5466 53.7985 37.3185 54.7591 36.7666L58.4671 34.6357C58.1606 33.1381 58.0004 31.5873 58.0003 29.999C58.0003 28.4142 58.1599 26.8667 58.4652 25.3721L54.7416 23.2334C53.7809 22.6814 53.4521 21.4534 54.0082 20.4951L59.2357 11.4883C59.7882 10.5367 61.0057 10.2103 61.9603 10.7578L65.6478 12.873C67.9729 10.7873 70.725 9.16832 73.7572 8.16309V4C73.7572 2.89559 74.6528 2.00025 75.7572 2H86.2259Z" fill="#E60040"/>
<path opacity="0.2" d="M59.2353 11.488C59.7878 10.5365 61.0054 10.2102 61.96 10.7576L65.3711 12.7136C64.192 15.9317 63.5489 19.4083 63.5488 23.0349C63.5488 37.7926 74.2049 50.0615 88.2422 52.5671V55.9997C88.2422 57.1043 87.3467 57.9997 86.2422 57.9997H75.7744C74.67 57.9996 73.7744 57.1042 73.7744 55.9997V51.8386C70.7391 50.8349 67.984 49.2168 65.6562 47.1306L61.9766 49.2419C61.022 49.7893 59.8044 49.4631 59.2519 48.5115L54.0244 39.5046C53.4686 38.5464 53.7983 37.3183 54.7588 36.7663L58.4668 34.6355C58.1602 33.1379 58 31.587 58 29.9988C58 28.414 58.1596 26.8664 58.4648 25.3718L54.7412 23.2331C53.7808 22.6812 53.4519 21.453 54.0078 20.4949L59.2353 11.488Z" fill="black"/>
<path d="M81 41C87.0751 41 92 36.0751 92 30C92 23.9249 87.0751 19 81 19C74.9249 19 70 23.9249 70 30C70 36.0751 74.9249 41 81 41Z" stroke="white" stroke-width="2" stroke-miterlimit="10" stroke-linecap="round" stroke-linejoin="round"/>
</svg>
