<svg width="163" height="30" viewBox="0 0 163 30" fill="none" xmlns="http://www.w3.org/2000/svg">
<path d="M44.8705 2.85938H32.9556C26.0362 2.85938 22.9274 7.49167 22.9274 10.7937C22.9274 14.0958 25.5897 16.6488 32.462 16.6488L33.8654 16.6555C35.3795 16.6555 36.2222 16.8671 36.2457 17.8816C36.2558 18.4392 35.8764 19.0909 35.4668 19.41C34.5436 20.1255 33.7277 20.1994 29.3801 20.1994H7.92705L12.0733 2.87953H4.90214C4.42205 2.87953 4.24412 3.01726 4.10311 3.58832L0.17174 19.8198C-0.566862 23.048 1.09499 26.0007 4.80814 26.0007H14.6483C17.1394 26.0007 20.4766 23.2764 21.8295 20.7604C21.9034 20.6193 21.9504 20.532 22.0075 20.4178C22.0075 20.4178 22.0377 20.3808 22.0444 20.4312C21.8295 21.3382 21.0742 24.5328 20.9533 25.0568C20.7955 25.7353 21.148 25.994 21.4737 25.994H32.0592C41.0365 25.994 44.5415 21.7178 44.8504 16.585C45.0216 13.6994 43.1986 11.8351 38.0418 11.8351H34.0802C32.6702 11.8351 31.2266 11.3715 31.2266 10.2294C31.2266 9.08728 32.7978 8.08961 34.9196 8.08961H44.5583C44.5583 8.08961 45.401 4.71028 45.5689 4.00485C45.777 3.11803 45.5118 2.85938 44.8638 2.85938" fill="#003378"/>
<path d="M47.8625 5.06899L57.7295 0H38.5527C38.5527 0 46.8586 1.69302 47.5972 1.84083C48.3392 1.99199 48.5071 2.38837 48.3795 2.9124C48.262 3.4062 47.8625 5.06563 47.8625 5.06563" fill="#E6003E"/>
<path d="M95.558 17.1275L95.9105 15.6931C96.122 14.8769 95.5983 14.4805 95.0678 14.4805H83.7034C83.079 14.4805 82.9313 14.6383 82.8003 15.1792L80.8363 23.342L80.5275 24.6218C80.3294 25.3508 80.5073 25.989 81.444 25.989H92.4861C93.3691 25.989 93.7786 25.4314 93.9599 24.773L94.3057 23.342H84.0157L84.4689 21.4575H91.6837C92.5667 21.4575 92.9763 20.8998 93.1575 20.2414L93.5033 18.8104H85.1068L85.513 17.1275H95.5647H95.558Z" fill="url(#paint0_linear_7332_37296)"/>
<path d="M71.6579 14.4844H69.2171C68.596 14.4844 68.4449 14.6423 68.314 15.1831L66.0411 24.6291C65.8431 25.358 66.021 25.9963 66.9577 25.9963H77.8722C78.7551 25.9963 79.1647 25.4386 79.346 24.7802L79.6918 23.3492H69.526L71.6579 14.4877V14.4844Z" fill="url(#paint1_linear_7332_37296)"/>
<path d="M162.105 14.4838H154.411C151.322 14.4838 149.6 15.6898 148.874 18.5787L148.2 21.3735C147.656 23.8223 148.31 25.9924 151.688 25.9924H159.648C160.531 25.9924 160.94 25.4347 161.118 24.7763L161.464 23.3453H152.876C151.396 23.3453 151.107 22.6231 151.339 21.5213L151.899 19.1396C152.285 17.6146 153.591 17.1275 154.672 17.1275H162.599L162.951 15.6931C163.163 14.8769 162.639 14.4805 162.109 14.4805L162.105 14.4838Z" fill="url(#paint2_linear_7332_37296)"/>
<path d="M109.7 14.4838H102.005C98.9166 14.4838 97.1943 15.6898 96.4692 18.5787L95.7943 21.3735C95.2505 23.8223 95.9051 25.9924 99.2826 25.9924H107.243C108.126 25.9924 108.535 25.4347 108.713 24.7763L109.059 23.3453H100.471C98.9905 23.3453 98.7017 22.6231 98.9334 21.5213L99.4941 19.1396C99.8802 17.6146 101.186 17.1275 102.267 17.1275H110.19L110.543 15.6931C110.754 14.8769 110.231 14.4805 109.7 14.4805V14.4838Z" fill="url(#paint3_linear_7332_37296)"/>
<path d="M146.926 14.4844H144.549L142.098 24.6291C141.9 25.358 142.078 25.9963 143.014 25.9963H145.291L147.768 15.7004C147.98 14.8841 147.456 14.4877 146.926 14.4877V14.4844Z" fill="url(#paint4_linear_7332_37296)"/>
<path d="M126.674 15.697C126.885 14.8808 126.361 14.4844 125.831 14.4844H112.667C112.046 14.4844 111.895 14.6423 111.764 15.1831L111.287 17.1314H117.085L115.279 24.6291C115.081 25.358 115.259 25.9963 116.195 25.9963H118.317L120.449 17.1348H126.324L126.677 15.7004L126.674 15.697Z" fill="url(#paint5_linear_7332_37296)"/>
<path d="M137.912 14.4844H128.791C128.17 14.4844 128.018 14.6423 127.888 15.1831L125.605 24.6291C125.407 25.358 125.584 25.9963 126.521 25.9963H128.455L130.587 17.1348H137.308C139.517 17.1348 139.03 20.205 136.432 20.205H131.591C131.111 20.205 130.929 20.6955 131.252 21.0448L132.91 22.8521L134.971 25.096C135.619 25.8249 135.791 25.9996 136.727 25.9996H139.964L136.949 22.8319C142.844 22.412 144.197 14.4911 137.912 14.4911V14.4844Z" fill="url(#paint6_linear_7332_37296)"/>
<path d="M66.3258 11.4883H51.997C51.2113 11.4883 51.0233 11.6865 50.8588 12.3684L48.3812 22.6609L47.9884 24.2733C47.7366 25.1937 47.9649 25.9965 49.1433 25.9965H63.0625C64.1772 25.9965 64.6908 25.2945 64.9191 24.4648L65.2616 23.0606H51.8761L52.5442 20.2826H62.0486C63.1633 20.2826 63.6769 19.5805 63.9052 18.7508L64.3417 16.9469H53.3466L53.9542 14.4242H67.0376L67.3834 13.0167C67.6486 11.9888 66.9872 11.4883 66.3191 11.4883H66.3258Z" fill="url(#paint7_linear_7332_37296)"/>
<defs>
<linearGradient id="paint0_linear_7332_37296" x1="88.0908" y1="25.7404" x2="88.0908" y2="14.42" gradientUnits="userSpaceOnUse">
<stop stop-color="#0075BE"/>
<stop offset="1" stop-color="#003378"/>
</linearGradient>
<linearGradient id="paint1_linear_7332_37296" x1="72.7276" y1="25.7476" x2="72.7276" y2="14.4239" gradientUnits="userSpaceOnUse">
<stop stop-color="#0075BE"/>
<stop offset="1" stop-color="#003378"/>
</linearGradient>
<linearGradient id="paint2_linear_7332_37296" x1="155.402" y1="25.7437" x2="155.402" y2="14.42" gradientUnits="userSpaceOnUse">
<stop stop-color="#0075BE"/>
<stop offset="1" stop-color="#003378"/>
</linearGradient>
<linearGradient id="paint3_linear_7332_37296" x1="102.995" y1="25.7437" x2="102.995" y2="14.42" gradientUnits="userSpaceOnUse">
<stop stop-color="#0075BE"/>
<stop offset="1" stop-color="#003378"/>
</linearGradient>
<linearGradient id="paint4_linear_7332_37296" x1="144.878" y1="25.7476" x2="144.878" y2="14.4239" gradientUnits="userSpaceOnUse">
<stop stop-color="#0075BE"/>
<stop offset="1" stop-color="#003378"/>
</linearGradient>
<linearGradient id="paint5_linear_7332_37296" x1="118.889" y1="25.7476" x2="118.889" y2="14.4239" gradientUnits="userSpaceOnUse">
<stop stop-color="#0075BE"/>
<stop offset="1" stop-color="#003378"/>
</linearGradient>
<linearGradient id="paint6_linear_7332_37296" x1="133.662" y1="25.7509" x2="133.662" y2="14.4239" gradientUnits="userSpaceOnUse">
<stop stop-color="#0075BE"/>
<stop offset="1" stop-color="#003378"/>
</linearGradient>
<linearGradient id="paint7_linear_7332_37296" x1="57.6775" y1="25.7446" x2="57.6775" y2="14.1891" gradientUnits="userSpaceOnUse">
<stop stop-color="#0075BE"/>
<stop offset="1" stop-color="#003378"/>
</linearGradient>
</defs>
</svg>
