<svg width="32" height="36" viewBox="0 0 32 36" fill="none" xmlns="http://www.w3.org/2000/svg">
  <path d="M24.535 0.976815C24.7017 0.555254 25.2983 0.555255 25.465 0.976816L26.9238 4.6668C26.9746 4.79535 27.0764 4.89713 27.205 4.94795L30.8949 6.40678C31.3165 6.57344 31.3165 7.17008 30.8949 7.33674L27.205 8.79557C27.0764 8.84639 26.9746 8.94817 26.9238 9.07672L25.465 12.7667C25.2983 13.1883 24.7017 13.1882 24.535 12.7667L23.0762 9.07672C23.0254 8.94817 22.9236 8.84639 22.795 8.79557L19.1051 7.33674C18.6835 7.17008 18.6835 6.57344 19.1051 6.40678L22.795 4.94795C22.9236 4.89713 23.0254 4.79535 23.0762 4.6668L24.535 0.976815Z" fill="url(#ico_gnb_search_ai_g0)"/>
  <path d="M7.63531 31.6456C5.2852 30.7207 4.15316 28.0453 5.12698 25.7151L11.6126 10.1977C11.932 9.43353 12.8113 9.07243 13.5755 9.39152C14.3397 9.71096 14.7009 10.5902 14.3817 11.3545L7.8961 26.8718C7.57052 27.6507 7.94825 28.5453 8.73382 28.8545C9.49372 29.1533 10.3526 28.7917 10.6712 28.0398L12.4378 23.8704C12.4541 23.8163 12.4727 23.7622 12.4955 23.709C13.4038 21.5955 13.7935 20.6465 14.1437 19.7866C14.4983 18.9159 14.8175 18.1263 15.5767 16.3465C15.9748 15.4134 16.6824 14.6418 17.577 14.1644C19.7506 13.0047 22.4528 13.8265 23.6128 15.9999L28.5745 25.2979C29.7444 27.4905 28.9155 30.2166 26.723 31.3866C24.5304 32.5565 21.8044 31.7275 20.6343 29.5351L17.8095 24.2416C17.4195 23.5108 17.696 22.6021 18.4267 22.212C19.1576 21.822 20.0662 22.0983 20.4563 22.8292L23.281 28.1227C23.6711 28.8533 24.5798 29.1297 25.3106 28.7399C26.0414 28.3499 26.3176 27.4411 25.9278 26.7103L20.966 17.4123C20.5861 16.7006 19.7012 16.4315 18.9893 16.8112C18.6976 16.9669 18.4654 17.2204 18.3359 17.524C17.5866 19.2804 17.2757 20.0514 16.9227 20.9182C16.6932 21.4817 16.4454 22.0811 16.0562 23.0033C16.0432 23.0427 16.0295 23.0826 16.013 23.1215L13.4341 29.2098C12.4812 31.4599 9.90913 32.5403 7.63531 31.6456Z" fill="url(#ico_gnb_search_ai_g1)"/>
  <defs>
    <linearGradient id="ico_gnb_search_ai_g0" x1="31.5" y1="18.5009" x2="18.0682" y2="8.08048" gradientUnits="userSpaceOnUse">
      <stop offset="0.5" stop-color="#9535FF"/>
      <stop offset="1" stop-color="#028DFF"/>
    </linearGradient>
    <linearGradient id="ico_gnb_search_ai_g1" x1="24.9998" y1="38.2768" x2="6.04662" y2="18.7152" gradientUnits="userSpaceOnUse">
      <stop offset="0.5" stop-color="#9535FF"/>
      <stop offset="1" stop-color="#028DFF"/>
    </linearGradient>
  </defs>
</svg>
